<?xml version="1.0" encoding="UTF-8" standalone="no"?>
<!-- Created with Inkscape (http://www.inkscape.org/) -->

<svg
   width="210mm"
   height="297mm"
   viewBox="0 0 210 297"
   version="1.1"
   id="svg1"
   inkscape:version="1.3.2 (091e20ef0f, 2023-11-25, custom)"
   sodipodi:docname="porcle.svg"
   xmlns:inkscape="http://www.inkscape.org/namespaces/inkscape"
   xmlns:sodipodi="http://sodipodi.sourceforge.net/DTD/sodipodi-0.dtd"
   xmlns="http://www.w3.org/2000/svg"
   xmlns:svg="http://www.w3.org/2000/svg">
  <path
     id="path166"
     style="fill:#ffffff;stroke:none;stroke-width:0.216975"
     d="m 43.762356,90.599506 -1.368811,0.272491 -1.337451,0.553882 -1.160312,0.775518 -1.02343,1.02343 -0.775518,1.160311 -0.553881,1.337452 -0.272491,1.368811 v 1.447634 l 0.272491,1.368812 0.553881,1.337453 0.775518,1.16031 1.02343,1.02385 1.160312,0.7751 1.337451,0.5543 1.368811,0.27207 h 1.447635 l 1.368811,-0.27207 1.337451,-0.5543 1.160312,-0.7751 1.023853,-1.02385 0.775095,-1.16031 0.553881,-1.337453 0.272491,-1.368812 v -1.447634 l -0.272491,-1.368811 -0.553881,-1.337452 -0.775095,-1.160311 -1.023853,-1.02343 -1.160312,-0.775518 -1.337451,-0.553882 -1.368811,-0.272491 z m -1.041229,3.810635 a 2.8006261,2.8006261 0 0 1 1.768861,0.629314 2.8006261,2.8006261 0 0 1 1.761232,-0.629314 2.8006261,2.8006261 0 0 1 2.800342,2.800766 2.8006261,2.8006261 0 0 1 -1.046315,2.176113 l -3.542381,3.54238 -3.728422,-3.728843 0.01271,-0.01271 a 2.8006261,2.8006261 0 0 1 -0.826372,-1.976936 2.8006261,2.8006261 0 0 1 2.800341,-2.800766 z"
     inkscape:export-filename="gear_big.png"
     inkscape:export-xdpi="107.51"
     inkscape:export-ydpi="107.51" />
  <sodipodi:namedview
     id="namedview1"
     pagecolor="#505050"
     bordercolor="#eeeeee"
     borderopacity="1"
     inkscape:showpageshadow="0"
     inkscape:pageopacity="0"
     inkscape:pagecheckerboard="0"
     inkscape:deskcolor="#505050"
     inkscape:document-units="mm"
     inkscape:zoom="1.8655413"
     inkscape:cx="169.38783"
     inkscape:cy="140.17379"
     inkscape:window-width="1306"
     inkscape:window-height="1067"
     inkscape:window-x="0"
     inkscape:window-y="0"
     inkscape:window-maximized="0"
     inkscape:current-layer="svg1" />
  <defs
     id="defs1" />
  <path
     id="path182"
     style="fill:#ffffff;stroke:none;stroke-width:0.264583"
     d="M -1.8265037 -7.3566517 L -2.8465964 -7.024889 L -2.8677838 -5.628075 L -2.8341941 -5.5376413 L -2.3019268 -4.4984282 L -3.5669659 -3.5796213 L -4.3906882 -4.4064442 L -4.4666526 -4.4663888 L -5.8014548 -4.87825 L -6.4319073 -4.0100859 L -5.627822 -2.86752 L -5.5477236 -2.8142933 L -4.5064434 -2.2861602 L -4.9896181 -0.7994292 L -6.1420025 -0.98391407 L -6.2386375 -0.98804818 L -7.5605206 -0.53639616 L -7.5605206 0.53640657 L -6.2386375 0.98805859 L -6.1420025 0.98392448 L -4.9896181 0.79943961 L -4.5064434 2.2861706 L -5.5477236 2.8143037 L -5.627822 2.8675304 L -6.4319073 4.0100964 L -5.8014548 4.8782604 L -4.4666526 4.4663992 L -4.3906882 4.4064546 L -3.5669659 3.5796317 L -2.3019268 4.4984386 L -2.8341941 5.5376517 L -2.8677838 5.6280854 L -2.8465964 7.0248994 L -1.8265037 7.3566621 L -0.98831193 6.2389009 L -0.96195695 6.1458833 L -0.7816062 4.9924653 L 0.78160587 4.9924653 L 0.96195662 6.1458833 L 0.9883116 6.2389009 L 1.8265033 7.3566621 L 2.8465961 7.0248994 L 2.8677834 5.6280854 L 2.8341938 5.5376517 L 2.3019265 4.4984386 L 3.5669656 3.5796317 L 4.3906879 4.4064546 L 4.4666523 4.4663992 L 5.8014545 4.8782604 L 6.431907 4.0100964 L 5.6278217 2.8675304 L 5.5477232 2.8143037 L 4.5064431 2.2861706 L 4.9896178 0.79943961 L 6.1420022 0.98392448 L 6.2386371 0.98805859 L 7.5605203 0.53640657 L 7.5605203 -0.53639616 L 6.2386371 -0.98804818 L 6.1420022 -0.98391407 L 4.9896178 -0.7994292 L 4.5064431 -2.2861602 L 5.5477232 -2.8142933 L 5.6278217 -2.86752 L 6.431907 -4.0100859 L 5.8014545 -4.87825 L 4.4666523 -4.4663888 L 4.3906879 -4.4064442 L 3.5669656 -3.5796213 L 2.3019265 -4.4984282 L 2.8341938 -5.5376413 L 2.8677834 -5.628075 L 2.8465961 -7.024889 L 1.8265033 -7.3566517 L 0.9883116 -6.2388905 L 0.96195662 -6.1458729 L 0.78160587 -4.9924549 L -0.7816062 -4.9924549 L -0.96195695 -6.1458729 L -0.98831193 -6.2388905 L -1.8265037 -7.3566517 z M 0.00025821615 -2.1166615 A 2.1166666 2.1166666 0 0 1 2.1169249 5.2057292e-06 A 2.1166666 2.1166666 0 0 1 0.00025821615 2.1166719 A 2.1166666 2.1166666 0 0 1 -2.1164085 5.2057292e-06 A 2.1166666 2.1166666 0 0 1 0.00025821615 -2.1166615 z "
     transform="translate(49.23808,76.874889)"
     inkscape:export-filename="gear_small.png"
     inkscape:export-xdpi="107.51"
     inkscape:export-ydpi="107.51" />
  <circle
     style="fill:#ffffff;fill-opacity:1;stroke:none;stroke-width:0.264583;stroke-opacity:1"
     id="circle200"
     cx="15.834304"
     cy="96.0933"
     r="8.3578644" />
  <circle
     style="fill:none;fill-opacity:1;stroke:#ffffff;stroke-width:1.218;stroke-dasharray:none;stroke-opacity:1"
     id="circle202"
     cx="17.933449"
     cy="42.240196"
     r="9.028676"
     inkscape:export-filename="ammo.png"
     inkscape:export-xdpi="102.78412"
     inkscape:export-ydpi="102.78412" />
  <path
     id="circle195"
     style="fill:#ffffff;fill-opacity:1;stroke:none;stroke-width:0.264583;stroke-opacity:1"
     d="M 40.104012 35.110518 A 8.3578644 8.3578644 0 0 0 31.745866 43.468665 A 8.3578644 8.3578644 0 0 0 40.104012 51.826294 A 8.3578644 8.3578644 0 0 0 48.461641 43.468665 A 8.3578644 8.3578644 0 0 0 40.104012 35.110518 z M 38.845174 35.725468 L 38.34443 38.658622 C 38.34133 38.676642 38.338778 38.694119 38.336678 38.711849 C 38.017193 38.656185 37.8142 38.321926 37.87004 37.995097 L 38.169246 36.24585 C 38.222931 35.931582 38.648702 35.714568 38.845174 35.725468 z M 39.4255 35.792647 C 40.021697 35.863907 40.955752 35.991597 41.350964 36.133712 C 41.381864 36.144812 41.406944 36.155428 41.435714 36.166268 L 40.957707 38.96558 C 40.948257 39.020912 40.941836 39.07365 40.937036 39.12526 L 40.937036 39.125777 C 40.874749 39.130077 40.812743 39.132882 40.752035 39.133012 C 40.359316 39.134194 39.494422 38.967213 38.932507 38.846208 C 38.918087 38.843118 38.910903 38.831512 38.907703 38.815202 C 38.911873 38.795902 38.915671 38.776747 38.919071 38.756807 L 39.4255 35.792647 z M 41.769027 36.305794 C 42.067555 36.448878 42.240352 36.591321 42.514718 36.813774 C 42.514718 36.813774 43.333029 37.441638 43.489335 38.058659 C 43.146137 38.578281 42.5036 38.81582 42.161768 38.87773 C 42.161768 38.87773 41.757604 39.009303 41.29257 39.083403 C 41.29653 39.063683 41.301472 39.044811 41.304972 39.024491 L 41.769027 36.305794 z M 38.390422 47.512862 C 38.555076 47.510195 38.778521 47.512529 39.013123 47.532499 C 39.004533 47.550689 38.995584 47.568396 38.987284 47.587276 L 37.882442 50.114254 C 37.627098 49.903559 37.494242 49.723864 37.281445 49.441943 C 37.281445 49.441943 36.637756 48.635639 36.634456 47.999137 C 37.092574 47.577327 37.773465 47.501057 38.120154 47.523197 C 38.120154 47.523197 38.225767 47.51553 38.390422 47.512862 z M 39.368656 47.577458 C 39.430148 47.588268 39.490564 47.600185 39.549524 47.614665 C 39.930995 47.707988 40.730789 48.078277 41.247095 48.3309 C 41.260375 48.33737 41.264448 48.349957 41.263631 48.366557 C 41.254941 48.384287 41.24641 48.402277 41.23831 48.420817 L 40.034249 51.176204 C 39.472701 50.96362 38.5967 50.614949 38.247278 50.381938 C 38.219958 50.363738 38.197667 50.347184 38.172347 50.329744 L 39.309745 47.727836 C 39.332225 47.676404 39.351586 47.626398 39.368656 47.577458 z M 41.793315 48.604268 C 42.090024 48.735151 42.206221 49.108688 42.073401 49.412488 L 41.362333 51.038745 C 41.234626 51.330867 40.769066 51.438683 40.580986 51.380843 L 41.772644 48.654911 C 41.779984 48.638171 41.787015 48.620968 41.793315 48.604268 z " />
  <path
     id="path192"
     style="fill:#ffffff;fill-opacity:1;stroke:none;stroke-width:0.264583;stroke-opacity:1"
     d="M 20.720699 57.054399 A 8.3578644 8.3578644 0 0 0 12.362553 65.412028 A 8.3578644 8.3578644 0 0 0 20.720699 73.770174 A 8.3578644 8.3578644 0 0 0 29.078328 65.412028 A 8.3578644 8.3578644 0 0 0 20.720699 57.054399 z M 19.035531 59.521948 C 19.883252 60.262473 20.15251 61.4702 20.18068 62.097502 C 20.18068 62.097502 20.319157 62.853702 20.339327 63.704639 C 20.304986 63.692839 20.272041 63.679595 20.236491 63.668465 L 15.478642 62.178634 C 15.807194 61.678514 16.104138 61.403927 16.569014 60.966305 C 16.569014 60.966305 17.89245 59.652602 19.035531 59.521948 z M 26.79268 61.345093 C 26.86707 61.343693 26.940205 61.346529 27.011788 61.353361 C 27.687448 62.253634 27.700891 63.491318 27.598315 64.110815 C 27.598315 64.110815 27.57631 64.878759 27.419515 65.715369 C 27.388405 65.696659 27.358937 65.677321 27.326497 65.659041 L 22.981543 63.214746 C 23.4067 62.793666 23.754259 62.58678 24.299809 62.255115 C 24.299809 62.255115 25.676827 61.366096 26.79268 61.345093 z M 15.147913 62.741907 L 20.046322 64.27618 C 20.143154 64.30651 20.236678 64.330378 20.327958 64.351628 C 20.320558 64.464236 20.311322 64.575636 20.296952 64.684424 C 20.204019 65.388176 19.695758 66.897673 19.343005 67.874927 C 19.333975 67.899957 19.31147 67.910434 19.28151 67.912134 C 19.247946 67.899994 19.214091 67.887884 19.179191 67.876994 L 13.992428 66.252804 C 14.264371 65.2021 14.719146 63.560138 15.069364 62.886601 C 15.096744 62.833927 15.121533 62.790817 15.147913 62.741907 z M 22.54126 63.696887 L 27.014372 66.213529 C 27.102813 66.263274 27.189921 66.306638 27.274821 66.346338 C 27.244261 66.454801 27.211652 66.561894 27.175085 66.665181 C 26.938179 67.334344 26.127604 68.705175 25.579834 69.588 C 25.565794 69.6109 25.541868 69.615772 25.512138 69.611772 C 25.481788 69.593072 25.45098 69.574378 25.41912 69.556478 L 20.682458 66.891524 C 21.166455 65.920089 21.951965 64.408179 22.43429 63.821944 C 22.47201 63.776102 22.50527 63.739247 22.54126 63.696887 z M 13.731462 67.275997 L 18.863965 68.883134 C 18.895485 68.893034 18.926796 68.902006 18.958016 68.910006 C 18.780983 69.468819 18.133127 69.750574 17.561202 69.571464 L 14.49989 68.612866 C 13.949949 68.440643 13.664382 67.625294 13.731462 67.275997 z M 20.214787 67.838236 L 24.902356 70.475285 C 24.930476 70.492485 24.959746 70.507077 24.988656 70.521277 C 24.699334 71.030695 24.006977 71.17212 23.484871 70.878361 L 20.689176 69.305847 C 20.186922 69.023287 20.076709 68.166012 20.214787 67.838236 z " />
  <path
     id="path200"
     style="fill:#ff0000;stroke-width:0.21421"
     d="m 14.148925,90.202804 c -1.143083,0.130654 -2.466094,1.444775 -2.466094,1.444775 -0.464878,0.437624 -0.761765,0.712176 -1.090319,1.212296 l 4.757576,1.489903 c 0.03555,0.01113 0.06847,0.02389 0.102811,0.03569 -0.02017,-0.850939 -0.158361,-1.606846 -0.158361,-1.606846 -0.02817,-0.627302 -0.297884,-1.835304 -1.145607,-2.575829 z m 1.292896,4.829817 c -0.09128,-0.02125 -0.185077,-0.04524 -0.281909,-0.07557 l -4.898115,-1.533914 c -0.02638,0.04891 -0.05122,0.09194 -0.0786,0.144614 -0.3502194,0.673539 -0.8049767,2.315337 -1.0769216,3.366043 l 5.1863816,1.624189 c 0.0349,0.01089 0.06898,0.023 0.102544,0.03514 0.02996,-0.0017 0.05221,-0.01234 0.06124,-0.03737 0.352753,-0.977256 0.861358,-2.486307 0.954291,-3.190061 0.01437,-0.108788 0.0237,-0.220491 0.0311,-0.333101 z m -1.370077,4.558354 c -0.03122,-0.008 -0.06267,-0.0169 -0.09419,-0.0268 L 8.8450731,97.956846 c -0.067077,0.349297 0.2185424,1.164916 0.7684855,1.337139 l 3.0611224,0.958635 c 0.571927,0.17911 1.220017,-0.10279 1.39705,-0.661605 z" />
  <path
     id="path198"
     style="fill:#ffffff;stroke-width:0.21421;stroke:none"
     d="m 16.248069,36.349702 c -1.143083,0.130654 -2.466094,1.444775 -2.466094,1.444775 -0.464878,0.437624 -0.761765,0.712176 -1.090319,1.212296 l 4.757576,1.489903 c 0.03555,0.01113 0.06847,0.02389 0.102811,0.03569 -0.02017,-0.850939 -0.158361,-1.606846 -0.158361,-1.606846 -0.02817,-0.627302 -0.297884,-1.835304 -1.145607,-2.575829 z m 1.292896,4.829817 c -0.09128,-0.02125 -0.185077,-0.04524 -0.281909,-0.07557 l -4.898115,-1.533914 c -0.02638,0.04891 -0.05122,0.09194 -0.0786,0.144614 -0.350219,0.673539 -0.804977,2.315337 -1.076921,3.366043 l 5.186381,1.624189 c 0.0349,0.01089 0.06898,0.023 0.102544,0.03514 0.02996,-0.0017 0.05221,-0.01234 0.06124,-0.03737 0.352753,-0.977256 0.861358,-2.486307 0.954291,-3.190061 0.01437,-0.108788 0.0237,-0.220491 0.0311,-0.333101 z m -1.370077,4.558354 c -0.03122,-0.008 -0.06267,-0.0169 -0.09419,-0.0268 l -5.132481,-1.607329 c -0.06708,0.349297 0.218543,1.164916 0.768486,1.337139 l 3.061122,0.958635 c 0.571927,0.17911 1.220017,-0.10279 1.39705,-0.661605 z" />
  <path
     id="path201"
     style="fill:#ff0000;stroke-width:0.21421"
     d="m 22.125467,92.034215 c -1.145321,-0.10932 -2.712164,0.901755 -2.712164,0.901755 -0.54555,0.331666 -0.892933,0.538657 -1.31809,0.959738 l 4.344996,2.444453 c 0.03244,0.01828 0.06205,0.03755 0.09316,0.05626 0.156795,-0.83661 0.178423,-1.604743 0.178423,-1.604743 0.102576,-0.619498 0.08933,-1.857173 -0.586331,-2.757447 z m 0.262827,4.992958 c -0.0849,-0.0397 -0.171659,-0.08266 -0.2601,-0.132405 l -4.473348,-2.51666 c -0.03599,0.04236 -0.06917,0.07932 -0.10689,0.125162 -0.482325,0.586235 -1.26778,2.097977 -1.751777,3.069413 l 4.736619,2.664757 c 0.03186,0.0179 0.06268,0.0369 0.09303,0.0556 0.02973,0.004 0.05363,-0.001 0.06767,-0.0239 0.547771,-0.882826 1.358398,-2.253522 1.595305,-2.922685 0.03662,-0.10344 0.06893,-0.210776 0.09953,-0.319403 z m -2.285897,4.174967 c -0.02891,-0.0142 -0.0583,-0.0288 -0.08642,-0.046 l -4.687553,-2.636781 c -0.138078,0.327776 -0.02787,1.184905 0.474385,1.467465 l 2.795843,1.572476 c 0.52232,0.29388 1.214798,0.15254 1.503908,-0.35739 z" />
  <path
     id="path199"
     style="fill:#ffffff;stroke-width:0.21421;stroke:none"
     d="m 24.224611,38.181113 c -1.145321,-0.10932 -2.712164,0.901755 -2.712164,0.901755 -0.54555,0.331666 -0.892933,0.538657 -1.31809,0.959738 l 4.344996,2.444453 c 0.03244,0.01828 0.06205,0.03755 0.09316,0.05626 0.156795,-0.83661 0.178423,-1.604743 0.178423,-1.604743 0.102576,-0.619498 0.08933,-1.857173 -0.586331,-2.757447 z m 0.262827,4.992958 c -0.0849,-0.0397 -0.171659,-0.08266 -0.2601,-0.132405 l -4.473348,-2.51666 c -0.03599,0.04236 -0.06917,0.07932 -0.10689,0.125162 -0.482325,0.586235 -1.26778,2.097977 -1.751777,3.069413 l 4.736619,2.664757 c 0.03186,0.0179 0.06268,0.0369 0.09303,0.0556 0.02973,0.004 0.05363,-10e-4 0.06767,-0.0239 0.547771,-0.882826 1.358398,-2.253522 1.595305,-2.922685 0.03662,-0.10344 0.06893,-0.210776 0.09953,-0.319403 z m -2.285897,4.174967 c -0.02891,-0.0142 -0.0583,-0.0288 -0.08642,-0.046 l -4.687553,-2.636781 c -0.138078,0.327776 -0.02787,1.184905 0.474385,1.467465 l 2.795843,1.572476 c 0.52232,0.29388 1.214798,0.15254 1.503908,-0.35739 z" />
  <circle
     style="fill:#ffffff;fill-opacity:1;stroke:none;stroke-width:1.218;stroke-dasharray:none;stroke-opacity:1"
     id="path202"
     cx="48.004692"
     cy="14.691516"
     r="7.2871714" />
</svg>
