<?xml version="1.0" encoding="UTF-8" standalone="no"?>
<!-- Created with Inkscape (http://www.inkscape.org/) -->

<svg
   width="210mm"
   height="297mm"
   viewBox="0 0 210 297"
   version="1.1"
   id="svg1"
   inkscape:version="1.3.2 (091e20ef0f, 2023-11-25, custom)"
   sodipodi:docname="porcle.svg"
   xmlns:inkscape="http://www.inkscape.org/namespaces/inkscape"
   xmlns:sodipodi="http://sodipodi.sourceforge.net/DTD/sodipodi-0.dtd"
   xmlns="http://www.w3.org/2000/svg"
   xmlns:svg="http://www.w3.org/2000/svg">
  <path
     id="path166"
     style="fill:#ffffff;stroke:none;stroke-width:0.264583"
     d="M -0.59431647 -11.353924 L -0.9906747 -10.057879 L -0.99325853 -9.9033664 L -0.88267096 -8.799041 L -2.5518197 -8.4667616 L -2.8722136 -9.529229 L -2.9337086 -9.6713392 L -3.7961882 -10.71727 L -4.8937956 -10.262518 L -4.7640878 -8.9132459 L -4.7072437 -8.7690687 L -4.1827279 -7.7913506 L -5.5976286 -6.8456719 L -6.3004281 -7.705051 L -6.4115325 -7.8125379 L -7.6083586 -8.4486748 L -8.4486174 -7.608416 L -7.8124805 -6.4115899 L -7.7049936 -6.2999688 L -6.8456145 -5.597686 L -7.7912932 -4.1827853 L -8.7690113 -4.7073011 L -8.9131885 -4.7641452 L -10.26246 -4.893853 L -10.717213 -3.7962456 L -9.6712818 -2.933766 L -9.5291716 -2.872271 L -8.4667042 -2.5518771 L -8.7989836 -0.88272836 L -9.903309 -0.99331593 L -10.057822 -0.99073211 L -11.353866 -0.59437387 L -11.353866 0.59418407 L -10.057822 0.99054231 L -9.903309 0.99312613 L -8.7989836 0.88253856 L -8.4667042 2.5516873 L -9.5291716 2.8720812 L -9.6712818 2.9335762 L -10.717213 3.7960558 L -10.26246 4.89418 L -8.9131885 4.7639554 L -8.7690113 4.7076281 L -7.7912932 4.1825955 L -6.8456145 5.5974962 L -7.7049936 6.3002957 L -7.8124805 6.4114001 L -8.4486174 7.6082262 L -7.6083586 8.448485 L -6.4115325 7.8123481 L -6.3004281 7.7048612 L -5.5976286 6.8459988 L -4.1827279 7.7911608 L -4.7072437 8.7693957 L -4.7640878 8.9130561 L -4.8937956 10.262328 L -3.7961882 10.71708 L -2.9337086 9.6711494 L -2.8722136 9.529556 L -2.5518197 8.4670885 L -0.88267096 8.7988512 L -0.99325853 9.9031766 L -0.9906747 10.057689 L -0.59431647 11.354251 L 0.59424147 11.354251 L 0.99059971 10.057689 L 0.99318353 9.9031766 L 0.88259597 8.7988512 L 2.5517447 8.4670885 L 2.8721386 9.529556 L 2.9336336 9.6711494 L 3.7961132 10.71708 L 4.8942374 10.262328 L 4.7640128 8.9130561 L 4.7076855 8.7693957 L 4.1826529 7.7911608 L 5.5975536 6.8459988 L 6.3003531 7.7048612 L 6.4114575 7.8123481 L 7.6082836 8.448485 L 8.4485424 7.6082262 L 7.8124055 6.4114001 L 7.7049186 6.3002957 L 6.8460563 5.5974962 L 7.7912182 4.1825955 L 8.7689363 4.7076281 L 8.9131135 4.7639554 L 10.262385 4.89418 L 10.717138 3.7960558 L 9.6712068 2.9335762 L 9.5296134 2.8720812 L 8.4666292 2.5516873 L 8.7989086 0.88253856 L 9.903234 0.99312613 L 10.057747 0.99054231 L 11.354308 0.59418407 L 11.354308 -0.59437387 L 10.057747 -0.99073211 L 9.903234 -0.99331593 L 8.7989086 -0.88272836 L 8.4666292 -2.5518771 L 9.5296134 -2.872271 L 9.6712068 -2.933766 L 10.717138 -3.7962456 L 10.262385 -4.893853 L 8.9131135 -4.7641452 L 8.7689363 -4.7073011 L 7.7912182 -4.1827853 L 6.8460563 -5.597686 L 7.7049186 -6.2999688 L 7.8124055 -6.4115899 L 8.4485424 -7.608416 L 7.6082836 -8.4486748 L 6.4114575 -7.8125379 L 6.3003531 -7.705051 L 5.5975536 -6.8456719 L 4.1826529 -7.7913506 L 4.7076855 -8.7690687 L 4.7640128 -8.9132459 L 4.8942374 -10.262518 L 3.7961132 -10.71727 L 2.9336336 -9.6713392 L 2.8721386 -9.529229 L 2.5517447 -8.4667616 L 0.88259597 -8.799041 L 0.99318353 -9.9033664 L 0.99059971 -10.057879 L 0.59424147 -11.353924 L -0.59431647 -11.353924 z M -3.7497396e-05 -3.3073866 A 3.3072917 3.3072917 0 0 1 3.3072542 -9.4901042e-05 A 3.3072917 3.3072917 0 0 1 -3.7497396e-05 3.3071968 A 3.3072917 3.3072917 0 0 1 -3.3073292 -9.4901042e-05 A 3.3072917 3.3072917 0 0 1 -3.7497396e-05 -3.3073866 z "
     transform="translate(44.486211,97.815313)" />
  <sodipodi:namedview
     id="namedview1"
     pagecolor="#505050"
     bordercolor="#eeeeee"
     borderopacity="1"
     inkscape:showpageshadow="0"
     inkscape:pageopacity="0"
     inkscape:pagecheckerboard="0"
     inkscape:deskcolor="#505050"
     inkscape:document-units="mm"
     inkscape:zoom="2.2072683"
     inkscape:cx="281.34323"
     inkscape:cy="258.69079"
     inkscape:window-width="2752"
     inkscape:window-height="1080"
     inkscape:window-x="0"
     inkscape:window-y="0"
     inkscape:window-maximized="1"
     inkscape:current-layer="svg1" />
  <defs
     id="defs1" />
  <path
     id="path182"
     style="fill:#ffffff;stroke:none;stroke-width:0.264583"
     d="M -1.8265037 -7.3566517 L -2.8465964 -7.024889 L -2.8677838 -5.628075 L -2.8341941 -5.5376413 L -2.3019268 -4.4984282 L -3.5669659 -3.5796213 L -4.3906882 -4.4064442 L -4.4666526 -4.4663888 L -5.8014548 -4.87825 L -6.4319073 -4.0100859 L -5.627822 -2.86752 L -5.5477236 -2.8142933 L -4.5064434 -2.2861602 L -4.9896181 -0.7994292 L -6.1420025 -0.98391407 L -6.2386375 -0.98804818 L -7.5605206 -0.53639616 L -7.5605206 0.53640657 L -6.2386375 0.98805859 L -6.1420025 0.98392448 L -4.9896181 0.79943961 L -4.5064434 2.2861706 L -5.5477236 2.8143037 L -5.627822 2.8675304 L -6.4319073 4.0100964 L -5.8014548 4.8782604 L -4.4666526 4.4663992 L -4.3906882 4.4064546 L -3.5669659 3.5796317 L -2.3019268 4.4984386 L -2.8341941 5.5376517 L -2.8677838 5.6280854 L -2.8465964 7.0248994 L -1.8265037 7.3566621 L -0.98831193 6.2389009 L -0.96195695 6.1458833 L -0.7816062 4.9924653 L 0.78160587 4.9924653 L 0.96195662 6.1458833 L 0.9883116 6.2389009 L 1.8265033 7.3566621 L 2.8465961 7.0248994 L 2.8677834 5.6280854 L 2.8341938 5.5376517 L 2.3019265 4.4984386 L 3.5669656 3.5796317 L 4.3906879 4.4064546 L 4.4666523 4.4663992 L 5.8014545 4.8782604 L 6.431907 4.0100964 L 5.6278217 2.8675304 L 5.5477232 2.8143037 L 4.5064431 2.2861706 L 4.9896178 0.79943961 L 6.1420022 0.98392448 L 6.2386371 0.98805859 L 7.5605203 0.53640657 L 7.5605203 -0.53639616 L 6.2386371 -0.98804818 L 6.1420022 -0.98391407 L 4.9896178 -0.7994292 L 4.5064431 -2.2861602 L 5.5477232 -2.8142933 L 5.6278217 -2.86752 L 6.431907 -4.0100859 L 5.8014545 -4.87825 L 4.4666523 -4.4663888 L 4.3906879 -4.4064442 L 3.5669656 -3.5796213 L 2.3019265 -4.4984282 L 2.8341938 -5.5376413 L 2.8677834 -5.628075 L 2.8465961 -7.024889 L 1.8265033 -7.3566517 L 0.9883116 -6.2388905 L 0.96195662 -6.1458729 L 0.78160587 -4.9924549 L -0.7816062 -4.9924549 L -0.96195695 -6.1458729 L -0.98831193 -6.2388905 L -1.8265037 -7.3566517 z M 0.00025821615 -2.1166615 A 2.1166666 2.1166666 0 0 1 2.1169249 5.2057292e-06 A 2.1166666 2.1166666 0 0 1 0.00025821615 2.1166719 A 2.1166666 2.1166666 0 0 1 -2.1164085 5.2057292e-06 A 2.1166666 2.1166666 0 0 1 0.00025821615 -2.1166615 z "
     transform="translate(49.23808,76.874889)" />
</svg>
